<svg width="9065" height="2898" viewBox="0 0 9065 2898" fill="none" xmlns="http://www.w3.org/2000/svg">
<path d="M3669.91 444.727V449.644C3669.91 449.644 3669.91 454.561 3667.45 461.937C3664.99 469.313 3664.99 474.231 3664.99 479.148C3664.99 484.066 3662.54 491.442 3662.54 501.276C3662.54 511.111 3660.08 518.487 3660.08 528.322C3660.08 538.157 3660.08 545.533 3660.08 557.826C3660.08 567.661 3662.54 577.496 3664.99 589.789C3667.45 599.624 3669.91 609.459 3672.37 621.752L3819.89 1071.69L3950.2 658.633L3935.45 611.918C3915.78 555.368 3891.19 501.276 3859.23 452.103V444.727H4092.81V449.644C4085.43 479.148 4082.97 508.653 4082.97 535.698C4082.97 565.202 4087.89 594.707 4095.27 619.294L4242.79 1069.23L4373.1 651.257C4382.93 621.752 4387.85 589.789 4387.85 555.368C4387.85 520.946 4382.93 486.524 4373.1 447.185V444.727H4513.24V449.644C4483.74 496.359 4459.15 550.45 4439.48 609.459L4242.79 1241.34H4149.36L3977.25 729.935L3817.43 1241.34H3726.46L3512.56 609.459C3495.34 552.909 3470.76 501.276 3436.34 449.644V444.727H3669.91Z" fill="#070000"/>
<path d="M4537.83 756.971C4587 705.339 4653.39 680.752 4732.07 680.752C4810.75 680.752 4872.21 705.339 4914.01 756.971C4955.81 808.604 4977.94 872.53 4977.94 948.749H4614.05C4618.97 1012.68 4636.18 1061.85 4665.68 1101.19C4695.19 1138.07 4736.99 1157.74 4793.54 1157.74C4852.54 1157.74 4911.55 1133.15 4970.56 1083.98L4975.48 1086.44C4958.27 1130.69 4926.3 1170.03 4884.51 1201.99C4842.71 1233.96 4791.08 1248.71 4734.53 1248.71C4660.77 1248.71 4596.84 1224.12 4545.21 1172.49C4491.12 1120.86 4466.53 1052.01 4466.53 963.501C4461.61 877.447 4486.2 808.604 4537.83 756.971ZM4611.59 919.245L4837.79 894.658C4835.33 843.026 4827.96 801.228 4810.75 769.265C4793.53 737.302 4766.49 720.091 4729.61 720.091C4690.27 720.091 4658.31 739.761 4641.1 776.641C4621.43 813.521 4611.59 860.236 4611.59 914.328C4611.59 916.786 4611.59 916.786 4611.59 919.245Z" fill="#070000"/>
<path d="M5041.86 442.26V437.343L5209.05 415.215V1071.69C5209.05 1103.65 5218.89 1160.2 5236.1 1233.96V1238.88H5044.32V1233.96C5061.53 1157.74 5071.37 1103.65 5071.37 1071.69V599.617C5071.37 547.984 5061.53 493.893 5041.86 442.26Z" fill="#070000"/>
<path d="M5368.87 754.52C5420.5 705.346 5484.43 678.301 5565.57 678.301C5619.66 678.301 5688.5 695.512 5769.64 729.933L5772.1 882.372H5767.18C5742.59 840.574 5710.63 801.235 5676.21 769.272C5641.78 737.309 5607.36 720.099 5570.48 720.099C5528.68 720.099 5496.72 739.768 5477.05 776.648C5454.92 815.988 5445.09 862.703 5445.09 919.253C5445.09 921.711 5445.09 921.711 5445.09 924.17C5445.09 995.472 5462.3 1052.02 5491.8 1093.82C5521.31 1135.62 5565.57 1157.75 5624.57 1157.75C5681.12 1157.75 5740.13 1135.62 5796.68 1091.36L5799.14 1093.82C5779.47 1138.08 5749.97 1174.96 5710.63 1206.92C5668.83 1236.42 5619.66 1251.18 5565.57 1251.18C5491.8 1251.18 5427.88 1226.59 5376.25 1174.96C5322.15 1123.32 5297.57 1054.48 5297.57 963.509C5292.65 874.996 5317.24 806.153 5368.87 754.52Z" fill="#070000"/>
<path d="M5929.45 754.513C5983.54 705.339 6049.93 680.752 6128.61 680.752C6207.28 680.752 6276.13 705.339 6330.22 754.513C6384.31 803.687 6411.36 872.53 6411.36 961.043C6411.36 1052.01 6384.31 1120.86 6330.22 1172.49C6276.13 1224.12 6209.74 1248.71 6128.61 1248.71C6047.47 1248.71 5983.54 1224.12 5929.45 1172.49C5875.36 1120.86 5848.32 1049.56 5848.32 961.043C5848.32 872.53 5875.36 803.687 5929.45 754.513ZM6003.21 961.043C6003.21 1029.89 6013.05 1088.89 6035.18 1135.61C6057.3 1182.33 6089.27 1206.91 6128.61 1206.91C6167.95 1206.91 6199.91 1182.33 6222.04 1135.61C6244.16 1086.44 6256.46 1029.89 6256.46 961.043C6256.46 894.658 6244.16 838.108 6222.04 791.393C6199.91 744.678 6167.95 720.091 6128.61 720.091C6086.81 720.091 6054.85 744.678 6035.18 791.393C6013.05 838.108 6003.21 894.658 6003.21 961.043Z" fill="#070000"/>
<path d="M6497.4 1074.14V855.321C6497.4 823.358 6487.57 766.808 6470.36 693.048V688.13H6635.09V776.643C6681.81 715.176 6735.9 683.213 6802.28 683.213C6839.16 683.213 6871.12 693.048 6898.17 710.258C6925.22 727.469 6947.34 754.515 6959.64 791.395C7008.81 720.093 7067.82 683.213 7136.66 683.213C7185.84 683.213 7225.18 697.965 7257.14 729.928C7289.1 761.891 7306.31 808.606 7306.31 870.073V1076.6C7306.31 1108.57 7316.15 1165.12 7333.36 1238.88V1243.79H7144.04V1238.88C7161.25 1162.66 7171.08 1108.57 7171.08 1076.6V887.284C7171.08 850.404 7161.25 820.9 7139.12 801.23C7119.45 781.561 7092.41 771.726 7062.9 771.726C7030.94 771.726 6998.98 786.478 6964.55 813.524C6967.01 830.734 6969.47 850.404 6969.47 867.615V1074.14C6969.47 1106.11 6979.31 1162.66 6996.52 1236.42V1241.34H6807.2V1236.42C6824.41 1160.2 6834.24 1106.11 6834.24 1074.14V884.826C6834.24 847.945 6824.41 818.441 6802.28 798.771C6780.15 779.102 6755.57 769.267 6726.06 769.267C6696.56 769.267 6664.59 781.561 6632.63 806.147V1071.69C6632.63 1093.81 6635.09 1115.94 6637.55 1138.07C6640.01 1160.2 6644.92 1182.33 6649.84 1204.46L6657.22 1236.42V1241.34H6470.36V1236.42C6487.57 1160.2 6497.4 1106.11 6497.4 1074.14Z" fill="#070000"/>
<path d="M7466.13 756.971C7515.31 705.339 7581.69 680.752 7660.37 680.752C7739.05 680.752 7800.51 705.339 7842.31 756.971C7884.11 808.604 7906.24 872.53 7906.24 948.749H7542.35C7547.27 1012.68 7564.48 1061.85 7593.98 1101.19C7623.49 1138.07 7665.29 1157.74 7721.84 1157.74C7780.85 1157.74 7839.85 1133.15 7898.86 1083.98L7903.78 1086.44C7886.57 1130.69 7854.61 1170.03 7812.81 1201.99C7771.01 1233.96 7719.38 1248.71 7662.83 1248.71C7589.07 1248.71 7525.14 1224.12 7473.51 1172.49C7419.42 1120.86 7394.83 1052.01 7394.83 963.501C7389.91 877.447 7416.96 808.604 7466.13 756.971ZM7539.89 919.245L7766.09 894.658C7763.63 843.026 7756.26 801.228 7739.05 769.265C7721.84 737.302 7694.79 720.091 7657.91 720.091C7618.57 720.091 7586.61 739.761 7569.4 776.641C7549.73 813.521 7539.89 860.236 7539.89 914.328C7539.89 916.786 7539.89 916.786 7539.89 919.245Z" fill="#070000"/>
<path d="M3837.1 1430.64H3846.94V1605.21H3999.38V1649.47H3846.94V1988.77C3846.94 2047.78 3871.53 2077.28 3923.16 2077.28C3955.12 2077.28 3984.63 2067.45 4014.13 2050.23C3999.38 2084.66 3977.25 2114.16 3950.2 2136.29C3923.16 2158.42 3888.74 2170.71 3849.4 2170.71C3805.14 2170.71 3770.72 2155.96 3746.13 2126.45C3721.55 2096.95 3709.25 2057.61 3709.25 2005.98V1651.93H3628.11V1612.59C3714.17 1580.62 3783.01 1519.16 3837.1 1430.64Z" fill="#070000"/>
<path d="M4124.77 1674.07C4178.86 1624.9 4245.24 1600.31 4323.92 1600.31C4402.6 1600.31 4471.44 1624.9 4525.53 1674.07C4579.63 1723.25 4606.67 1792.09 4606.67 1880.6C4606.67 1971.58 4579.63 2040.42 4525.53 2092.05C4471.44 2143.68 4405.06 2168.27 4323.92 2168.27C4242.79 2168.27 4178.86 2143.68 4124.77 2092.05C4070.68 2040.42 4043.63 1969.12 4043.63 1880.6C4043.63 1792.09 4070.68 1723.25 4124.77 1674.07ZM4198.53 1880.6C4198.53 1949.45 4208.36 2008.46 4230.49 2055.17C4252.62 2101.89 4284.58 2126.47 4323.92 2126.47C4363.26 2126.47 4395.22 2101.89 4417.35 2055.17C4439.48 2006 4451.77 1949.45 4451.77 1880.6C4451.77 1814.22 4439.48 1757.67 4417.35 1710.95C4395.22 1664.24 4363.26 1639.65 4323.92 1639.65C4282.12 1639.65 4250.16 1664.24 4230.49 1710.95C4208.36 1757.67 4198.53 1814.22 4198.53 1880.6Z" fill="#070000"/>
<path d="M4918.93 1615.06V1610.15H4945.97L5086.12 1605.23V1681.45C5123 1627.36 5177.09 1600.31 5248.39 1600.31C5309.86 1600.31 5361.49 1624.9 5403.29 1674.07C5445.09 1723.25 5464.76 1789.63 5464.76 1878.14C5464.76 1971.58 5442.63 2042.88 5395.92 2094.51C5349.2 2146.14 5295.11 2170.73 5233.64 2170.73C5174.63 2170.73 5125.46 2148.6 5088.58 2104.34V2214.99C5088.58 2246.95 5098.41 2303.5 5115.62 2377.26V2382.18H4923.85V2377.26C4941.06 2301.04 4950.89 2246.95 4950.89 2214.99V1779.8C4950.89 1767.5 4950.89 1752.75 4948.43 1738C4945.98 1723.25 4945.97 1710.95 4943.52 1696.2C4941.06 1683.91 4938.6 1671.61 4936.14 1661.78C4933.68 1651.95 4931.22 1642.11 4928.76 1632.28C4921.39 1622.44 4918.93 1617.52 4918.93 1615.06ZM5174.63 2099.43C5218.89 2099.43 5253.31 2079.76 5275.44 2037.96C5300.03 1996.16 5309.86 1944.53 5309.86 1880.6C5309.86 1824.05 5300.03 1774.88 5277.9 1738C5255.77 1701.12 5223.81 1681.45 5182.01 1681.45C5147.59 1681.45 5113.17 1698.66 5081.2 1730.62V2065.01C5113.17 2087.13 5142.67 2099.43 5174.63 2099.43Z" fill="#070000"/>
<path d="M5523.76 1998.61C5523.76 1939.6 5548.35 1895.34 5595.07 1865.84C5641.78 1836.33 5693.41 1821.58 5747.51 1821.58C5762.26 1821.58 5779.47 1821.58 5794.22 1824.04C5818.81 1826.5 5843.39 1831.42 5865.52 1838.79V1769.95C5865.52 1730.61 5858.15 1698.65 5845.85 1676.52C5833.56 1654.39 5813.89 1644.56 5791.76 1644.56C5762.26 1644.56 5720.46 1661.77 5668.83 1698.65C5614.74 1735.53 5582.77 1762.57 5568.02 1782.24H5563.1V1639.64C5654.08 1612.59 5732.75 1597.84 5801.6 1597.84C5867.98 1597.84 5919.61 1615.05 5954.04 1647.02C5988.46 1678.98 6005.67 1723.23 6005.67 1777.33V2025.65C6005.67 2072.37 6020.42 2094.5 6047.47 2094.5C6054.84 2094.5 6064.68 2092.04 6076.97 2087.12V2092.04C6072.05 2114.17 6059.76 2133.84 6042.55 2146.13C6025.34 2160.88 6003.21 2165.8 5976.16 2165.8C5949.12 2165.8 5924.53 2158.42 5907.32 2143.67C5890.11 2128.92 5877.82 2109.25 5870.44 2082.2C5831.1 2138.75 5774.55 2168.26 5703.25 2168.26C5649.16 2168.26 5604.9 2151.05 5572.94 2119.08C5540.98 2084.66 5523.76 2045.32 5523.76 1998.61ZM5700.79 2062.53C5720.46 2084.66 5745.05 2094.5 5777.01 2094.5C5811.43 2094.5 5840.94 2079.75 5867.98 2047.78V1870.76C5860.61 1870.76 5853.23 1870.76 5848.31 1870.76C5831.1 1868.3 5816.35 1868.3 5804.06 1868.3C5769.63 1868.3 5737.67 1878.13 5710.63 1895.34C5683.58 1915.01 5668.83 1942.06 5668.83 1981.4C5668.83 2013.36 5678.66 2040.41 5700.79 2062.53Z" fill="#070000"/>
<path d="M6153.19 1993.69V1772.4C6153.19 1740.44 6143.35 1683.89 6126.14 1610.13V1605.21H6290.87V1703.56C6313 1659.3 6340.05 1629.8 6369.55 1615.05C6399.06 1600.3 6428.56 1592.92 6453.15 1592.92C6472.82 1592.92 6494.94 1595.38 6517.07 1602.75L6494.94 1752.73H6490.03C6472.82 1735.52 6453.15 1723.23 6435.94 1713.4C6418.73 1703.56 6396.6 1701.1 6376.93 1701.1C6372.01 1701.1 6362.18 1701.1 6347.42 1703.56C6332.67 1706.02 6313 1715.85 6290.87 1733.07V1993.69C6290.87 2015.81 6293.33 2037.94 6295.79 2060.07C6298.25 2082.2 6303.17 2104.33 6308.08 2126.46L6315.46 2158.42V2163.34H6126.14V2158.42C6143.35 2079.74 6153.19 2025.65 6153.19 1993.69Z" fill="#070000"/>
<path d="M6558.87 1998.61C6558.87 1939.6 6583.46 1895.34 6630.17 1865.84C6676.89 1836.33 6728.52 1821.58 6782.61 1821.58C6797.37 1821.58 6814.58 1821.58 6829.33 1824.04C6853.92 1826.5 6878.5 1831.42 6900.63 1838.79V1769.95C6900.63 1730.61 6893.26 1698.65 6880.96 1676.52C6868.67 1654.39 6849 1644.56 6826.87 1644.56C6797.37 1644.56 6755.57 1661.77 6703.94 1698.65C6649.84 1735.53 6617.88 1762.57 6603.13 1782.24H6598.21V1639.64C6689.18 1612.59 6767.86 1597.84 6836.7 1597.84C6903.09 1597.84 6954.72 1615.05 6989.14 1647.02C7023.57 1678.98 7040.78 1723.23 7040.78 1777.33V2025.65C7040.78 2072.37 7055.53 2094.5 7082.57 2094.5C7089.95 2094.5 7099.79 2092.04 7112.08 2087.12L7114.54 2089.58C7109.62 2111.71 7097.33 2131.38 7080.12 2143.67C7062.9 2158.42 7040.78 2163.34 7013.73 2163.34C6986.69 2163.34 6962.1 2155.96 6944.89 2141.21C6927.68 2126.46 6915.38 2106.79 6908.01 2079.75C6868.67 2136.3 6812.12 2165.8 6740.82 2165.8C6686.72 2165.8 6642.47 2148.59 6610.51 2116.63C6576.08 2084.66 6558.87 2045.32 6558.87 1998.61ZM6735.9 2062.53C6755.57 2084.66 6780.15 2094.5 6812.12 2094.5C6846.54 2094.5 6876.04 2079.75 6903.09 2047.78V1870.76C6895.71 1870.76 6888.34 1870.76 6883.42 1870.76C6866.21 1868.3 6851.46 1868.3 6839.16 1868.3C6804.74 1868.3 6772.78 1878.13 6745.73 1895.34C6718.69 1915.01 6703.94 1942.06 6703.94 1981.4C6703.94 2013.36 6716.23 2040.41 6735.9 2062.53Z" fill="#070000"/>
<path d="M7210.43 1674.06C7254.68 1624.88 7308.77 1600.29 7372.7 1600.29C7441.54 1600.29 7493.18 1627.34 7530.06 1681.43V1519.16C7530.06 1469.98 7517.76 1415.89 7493.18 1361.8V1356.88L7667.74 1334.76V1993.69C7667.74 2025.65 7677.58 2082.2 7694.79 2155.96V2160.88H7566.94C7566.94 2158.42 7562.02 2146.12 7552.18 2126.45C7544.81 2106.79 7537.43 2089.57 7534.97 2077.28C7493.18 2138.75 7436.63 2170.71 7365.32 2170.71C7303.86 2170.71 7252.22 2146.12 7207.97 2094.49C7163.71 2045.32 7141.58 1974.02 7141.58 1885.5C7144.04 1794.53 7166.17 1723.23 7210.43 1674.06ZM7325.98 2035.48C7345.65 2077.28 7380.08 2099.41 7424.33 2099.41C7458.75 2099.41 7495.64 2082.2 7532.52 2045.32C7532.52 2040.4 7532.52 2030.57 7532.52 2015.81V1723.23C7500.55 1691.27 7468.59 1676.51 7431.71 1676.51C7389.91 1676.51 7355.49 1696.18 7333.36 1733.06C7311.23 1769.94 7298.94 1819.12 7298.94 1880.59C7294.02 1942.05 7303.86 1993.69 7325.98 2035.48Z" fill="#070000"/>
<path d="M7780.84 1415.9C7780.84 1391.31 7790.68 1371.64 7807.89 1354.43C7825.1 1337.22 7847.23 1327.38 7871.81 1327.38C7896.4 1327.38 7918.53 1337.22 7935.74 1354.43C7952.95 1371.64 7962.78 1393.77 7962.78 1415.9C7962.78 1440.48 7952.95 1460.15 7935.74 1479.82C7918.53 1497.03 7896.4 1506.87 7871.81 1506.87C7847.23 1506.87 7825.1 1497.03 7807.89 1479.82C7788.22 1462.61 7780.84 1440.48 7780.84 1415.9ZM7780.84 1610.13V1605.21H7945.57V1993.69C7945.57 2025.65 7955.41 2082.2 7972.62 2155.96V2160.88H7783.3V2155.96C7783.3 2155.96 7785.76 2143.67 7790.68 2124C7795.59 2104.33 7800.51 2082.2 7802.97 2057.61C7805.43 2035.49 7807.89 2013.36 7807.89 1991.23V1772.41C7807.89 1740.44 7798.05 1686.35 7780.84 1610.13Z" fill="#070000"/>
<path d="M8048.85 1762.57C8048.85 1710.94 8068.52 1671.6 8110.31 1642.1C8149.65 1612.59 8203.74 1597.84 8270.13 1597.84C8334.05 1597.84 8397.98 1612.59 8464.36 1642.1V1777.33H8459.45C8383.23 1686.35 8316.84 1642.1 8257.83 1642.1C8233.25 1642.1 8211.12 1649.47 8193.91 1661.77C8176.7 1674.06 8166.86 1691.27 8166.86 1713.4C8166.86 1740.45 8186.53 1765.03 8225.87 1782.24C8238.16 1787.16 8267.67 1799.45 8314.38 1814.21C8375.85 1836.33 8420.11 1860.92 8447.15 1887.97C8474.2 1915.01 8486.49 1951.89 8486.49 1993.69C8486.49 2052.7 8466.82 2096.96 8425.03 2126.46C8383.23 2155.96 8334.05 2170.72 8272.59 2170.72C8211.12 2170.72 8139.82 2153.51 8058.68 2121.54V1978.94H8063.6C8085.73 2003.53 8102.94 2020.74 8112.77 2030.57C8122.61 2040.41 8139.82 2055.16 8161.95 2074.83C8184.07 2092.04 8203.74 2106.79 8223.41 2114.17C8243.08 2121.54 8262.75 2126.46 8282.42 2126.46C8307.01 2126.46 8329.14 2119.08 8348.81 2106.79C8368.48 2092.04 8375.85 2074.83 8375.85 2047.78C8375.85 2035.49 8373.39 2023.2 8368.48 2013.36C8363.56 2003.53 8353.72 1993.69 8338.97 1986.31C8324.22 1978.94 8309.47 1971.56 8294.72 1964.19C8279.96 1959.27 8260.29 1951.89 8233.25 1942.06C8171.78 1919.93 8127.52 1895.34 8095.56 1868.3C8063.6 1841.25 8048.85 1806.83 8048.85 1762.57Z" fill="#070000"/>
<path d="M8624.17 1676.53C8673.35 1624.9 8739.73 1600.31 8818.41 1600.31C8897.09 1600.31 8958.56 1624.9 9000.35 1676.53C9042.15 1728.16 9064.28 1792.09 9064.28 1868.31H8700.39C8705.31 1932.24 8722.52 1981.41 8752.03 2020.75C8781.53 2057.63 8823.33 2077.3 8879.88 2077.3C8938.89 2077.3 8997.9 2052.71 9056.9 2003.54L9061.82 2006C9044.61 2050.25 9012.65 2089.59 8970.85 2121.56C8929.05 2153.52 8877.42 2168.27 8820.87 2168.27C8747.11 2168.27 8683.18 2143.68 8631.55 2092.05C8577.46 2040.42 8552.87 1971.57 8552.87 1883.06C8547.96 1797.01 8572.54 1728.16 8624.17 1676.53ZM8697.94 1838.81L8924.13 1814.22C8921.68 1762.59 8914.3 1720.79 8897.09 1688.83C8879.88 1656.86 8852.83 1639.65 8815.95 1639.65C8776.61 1639.65 8744.65 1659.32 8727.44 1696.2C8707.77 1733.08 8697.94 1779.8 8697.94 1833.89C8697.94 1836.35 8697.94 1836.35 8697.94 1838.81Z" fill="#070000"/>
<path d="M4 358.667C4 358.667 345.758 159.513 618.673 412.759C891.588 666.004 852.249 1047.1 879.294 1329.85C906.34 1612.6 1039.11 1747.83 1203.84 1708.49C1368.57 1669.15 1395.62 1324.93 1466.92 1275.76C1466.92 1275.76 1511.18 1563.43 1609.53 1656.86C1707.87 1750.29 1941.45 1742.91 2047.17 1339.69C2145.52 968.423 1973.41 582.408 2152.9 191.476C2152.9 191.476 2165.19 223.439 2162.73 262.778C2162.73 262.778 2258.62 262.778 2334.84 260.32C2334.84 260.32 2347.13 34.1201 2219.28 4.61579C2091.43 -24.8885 1867.69 78.3766 1820.97 567.656C1796.39 845.488 1860.31 1115.94 1830.81 1324.93C1801.3 1533.92 1720.17 1563.43 1678.37 1524.09C1592.31 1447.87 1702.96 997.927 1420.21 872.534C1420.21 872.534 1452.17 995.469 1385.78 1219.21C1319.4 1442.95 1275.14 1521.63 1203.84 1516.71C1132.54 1511.79 1112.87 1285.59 1105.49 1010.22C1098.12 734.847 1016.98 326.704 655.553 174.266C294.126 21.8266 65.4673 238.191 4 358.667Z" fill="#070000"/>
<path d="M1280.06 589.782C1280.06 589.782 1508.72 491.434 1796.38 496.352C1796.38 496.352 1793.92 395.546 1838.18 292.28C1838.18 292.28 1400.53 265.235 1280.06 589.782Z" fill="#070000"/>
<path d="M2155.35 292.277C2155.35 292.277 2130.77 341.451 2116.01 486.514C2116.01 486.514 2467.61 496.349 2777.4 422.588C3087.2 348.827 3126.54 144.756 3126.54 144.756C3126.54 144.756 2964.26 304.571 2155.35 292.277Z" fill="#070000"/>
<path d="M2172.57 520.94C2172.57 520.94 2150.44 806.148 2113.56 973.339C2113.56 973.339 2145.52 1211.83 2047.18 1445.41C2047.18 1445.41 1970.96 2382.17 2617.59 2888.66C2624.97 2893.58 2632.34 2883.74 2627.43 2878.83C2499.57 2736.22 2211.91 2342.83 2219.28 1678.98C2226.66 823.359 2388.93 557.82 2652.01 557.82C2836.42 557.82 2942.14 847.946 2843.79 1101.19C2760.2 1320.01 2435.65 1135.61 2273.38 1233.96C2273.38 1233.96 2266 1320.01 2261.08 1415.9C2261.08 1415.9 2320.09 1349.52 2492.2 1376.56C2664.31 1403.61 2910.18 1433.11 3055.24 1152.82C3200.3 872.533 2988.85 555.361 2821.66 501.27C2654.47 447.179 2477.45 486.518 2337.3 668.461C2337.3 668.461 2347.14 604.535 2342.22 513.564C2342.22 511.105 2302.88 520.94 2172.57 520.94Z" fill="#070000"/>
</svg>
